# xmcd
#
# Track frame offsets:
#	150
#	15462
#	29853
#	44352
#	57574
#	68893
#	84828
#	99187
#	110686
#	127354
#	143988
#	157481
#
# Disc length: 2303 seconds
#
# Revision: 0
# Processed by: cddbd v1.5.2PL0 Copyright (c) Steve Scherf et al.
# Submitted via: EasyCDDAExtractor 16.0.6.1
#
DISCID=b208fd0c
DTITLE=Χαραλαμπίδης Βλαδίμηρος - Τραγούδια της ξενητειάς
DYEAR=1900
DGENRE=Ποντιακή
TTITLE0=Άγριον χαπάρ επείρα [Βλ. Χαραλαμπίδης]
TTITLE1=Έρθα μάννα σην Ελλάδαν [Βλ. Χαραλαμπίδης]
TTITLE2=Ορφανά μωρά σα στράτας [Βλ. Χαραλαμπίδης]
TTITLE3=Πρώτα ο παράς [Βλ. Χαραλαμπίδης]
TTITLE4=Πίσων μάννα τα χαρτία [Βλ. Χαραλαμπίδης]
TTITLE5=Βγάλ'τη μάσκα ξενητειά [Βλ. Χαραλαμπίδης]
TTITLE6=Τη πατέρα η ευσή [Βλ. Χαραλαμπίδης]
TTITLE7=Έσπριναν και γέρασαν [Βλ. Χαραλαμπίδης]
TTITLE8=Ναϊλή την Ναστασίαν [Βλ. Χαραλαμπίδης]
TTITLE9=Το αίμαν κίνεται νερόν [Βλ. Χαραλαμπίδης]
TTITLE10=Το ψωμίν της ξενητειάς [Βλ. Χαραλαμπίδης]
TTITLE11=Ένας γείτονας κακός [Βλ. Χαραλαμπίδης]
EXTD=
EXTT0=
EXTT1=
EXTT2=
EXTT3=
EXTT4=
EXTT5=
EXTT6=
EXTT7=
EXTT8=
EXTT9=
EXTT10=
EXTT11=
PLAYORDER=
